<svg xmlns="http://www.w3.org/2000/svg" viewBox="0 0 100 125"><defs/><metadata/><defs><linearGradient id="a"><stop offset="0" stop-color="#982f2f"/><stop offset="1" stop-color="#982f2f" stop-opacity="0"/></linearGradient></defs><path fill="#982f2f" fill-rule="evenodd" d="M60.7 62.5l32.1 32.1c3 3 3 7.7 0 10.7-3 3-7.7 3-10.7 0L50 73.2l-32.1 32.1c-3 3-7.7 3-10.7 0-3-3-3-7.7 0-10.7l32.1-32.1L7.2 30.4c-3-3-3-7.7 0-10.7 3-3 7.7-3 10.7 0L50 51.8l32.1-32.1c3-3 7.7-3 10.7 0 3 3 3 7.7 0 10.7z" clip-rule="evenodd"/></svg>