<svg xmlns="http://www.w3.org/2000/svg" viewBox="0 0 100 125"><defs/><metadata/><path d="M67.7 30H32.3c-5.9 0-10.8 4.8-10.8 10.8v43c0 .9.6 1.7 1.4 2l.7.1a2 2 0 001.6-.8L35 73.2h32.5c5.9 0 10.8-4.8 10.8-10.8V40.8c.2-5.9-4.7-10.8-10.6-10.8zm6.5 32.6c0 3.6-2.9 6.5-6.5 6.5H34.1a2 2 0 00-1.6.8L25.8 78V40.8c0-3.6 2.9-6.5 6.5-6.5h35.4c3.6 0 6.5 2.9 6.5 6.5z"/><path d="M66.5 44.4H33.2c-1.2 0-2.1 1-2.1 2.1s1 2.1 2.1 2.1h33.3c1.2 0 2.1-1 2.1-2.1s-.9-2.1-2.1-2.1zM59.5 55.6H33.2c-1.2 0-2.1 1-2.1 2.1 0 1.2 1 2.1 2.1 2.1h26.3c1.2 0 2.1-1 2.1-2.1.1-1.1-.9-2.1-2.1-2.1z"/></svg>