<?xml version="1.0" encoding="UTF-8" standalone="no"?>
<svg
   xmlns:dc="http://purl.org/dc/elements/1.1/"
   xmlns:cc="http://creativecommons.org/ns#"
   xmlns:rdf="http://www.w3.org/1999/02/22-rdf-syntax-ns#"
   xmlns:svg="http://www.w3.org/2000/svg"
   xmlns="http://www.w3.org/2000/svg"
   xmlns:sodipodi="http://sodipodi.sourceforge.net/DTD/sodipodi-0.dtd"
   xmlns:inkscape="http://www.inkscape.org/namespaces/inkscape"
   width="210mm"
   height="297mm"
   viewBox="0 0 210 297"
   version="1.1"
   id="svg246"
   inkscape:version="1.0.2 (e86c8708, 2021-01-15)"
   sodipodi:docname="comment1.svg">
  <defs
     id="defs240" />
  <sodipodi:namedview
     id="base"
     pagecolor="#ffffff"
     bordercolor="#666666"
     borderopacity="1.0"
     inkscape:pageopacity="0.0"
     inkscape:pageshadow="2"
     inkscape:zoom="0.35"
     inkscape:cx="400"
     inkscape:cy="560"
     inkscape:document-units="mm"
     inkscape:current-layer="layer1"
     inkscape:document-rotation="0"
     showgrid="false"
     inkscape:window-width="1434"
     inkscape:window-height="801"
     inkscape:window-x="0"
     inkscape:window-y="0"
     inkscape:window-maximized="0" />
  <metadata
     id="metadata243">
    <rdf:RDF>
      <cc:Work
         rdf:about="">
        <dc:format>image/svg+xml</dc:format>
        <dc:type
           rdf:resource="http://purl.org/dc/dcmitype/StillImage" />
        <dc:title></dc:title>
      </cc:Work>
    </rdf:RDF>
  </metadata>
  <g
     inkscape:label="Calque 1"
     inkscape:groupmode="layer"
     id="layer1">
    <g
       id="g118"
       transform="matrix(0.26458333,0,0,0.26458333,91.117934,125.12335)">
      <path
         d="M 67.7,22 H 32.3 c -5.9,0 -10.8,4.8 -10.8,10.8 v 43 c 0,0.9 0.6,1.7 1.4,2 0.2,0.1 0.5,0.1 0.7,0.1 0.6,0 1.2,-0.3 1.6,-0.8 L 35,65.2 h 32.5 c 5.9,0 10.8,-4.8 10.8,-10.8 V 32.8 C 78.5,26.9 73.6,22 67.7,22 Z m 6.5,32.6 c 0,3.6 -2.9,6.5 -6.5,6.5 H 34.1 c -0.6,0 -1.2,0.3 -1.6,0.8 L 25.8,70 V 32.8 c 0,-3.6 2.9,-6.5 6.5,-6.5 h 35.4 c 3.6,0 6.5,2.9 6.5,6.5 z"
         id="path112" />
      <path
         d="M 66.5,36.4 H 33.2 c -1.2,0 -2.1,1 -2.1,2.1 0,1.1 1,2.1 2.1,2.1 h 33.3 c 1.2,0 2.1,-1 2.1,-2.1 0,-1.1 -0.9,-2.1 -2.1,-2.1 z"
         id="path114" />
      <path
         d="M 59.5,47.6 H 33.2 c -1.2,0 -2.1,1 -2.1,2.1 0,1.2 1,2.1 2.1,2.1 h 26.3 c 1.2,0 2.1,-1 2.1,-2.1 0.1,-1.1 -0.9,-2.1 -2.1,-2.1 z"
         id="path116" />
    </g>
  </g>
</svg>
