<?xml version="1.0" encoding="UTF-8" standalone="no"?>
<svg
   xmlns:dc="http://purl.org/dc/elements/1.1/"
   xmlns:cc="http://creativecommons.org/ns#"
   xmlns:rdf="http://www.w3.org/1999/02/22-rdf-syntax-ns#"
   xmlns:svg="http://www.w3.org/2000/svg"
   xmlns="http://www.w3.org/2000/svg"
   xmlns:xlink="http://www.w3.org/1999/xlink"
   xmlns:sodipodi="http://sodipodi.sourceforge.net/DTD/sodipodi-0.dtd"
   xmlns:inkscape="http://www.inkscape.org/namespaces/inkscape"
   viewBox="0 0 100 125"
   version="1.1"
   id="svg18"
   sodipodi:docname="comment.svg"
   inkscape:version="1.0.2 (e86c8708, 2021-01-15)">
  <sodipodi:namedview
     pagecolor="#ffffff"
     bordercolor="#666666"
     borderopacity="1"
     objecttolerance="10"
     gridtolerance="10"
     guidetolerance="10"
     inkscape:pageopacity="0"
     inkscape:pageshadow="2"
     inkscape:window-width="1440"
     inkscape:window-height="900"
     id="namedview20"
     showgrid="false"
     inkscape:zoom="3.9671079"
     inkscape:cx="52.506328"
     inkscape:cy="26.077619"
     inkscape:window-x="0"
     inkscape:window-y="0"
     inkscape:window-maximized="0"
     inkscape:current-layer="svg18" />
  <defs
     id="defs10">
    <linearGradient
       inkscape:collect="always"
       id="linearGradient857">
      <stop
         style="stop-color:#36a2f5;stop-opacity:1;"
         offset="0"
         id="stop853" />
      <stop
         style="stop-color:#36a2f5;stop-opacity:0;"
         offset="1"
         id="stop855" />
    </linearGradient>
    <linearGradient
       inkscape:collect="always"
       id="linearGradient849">
      <stop
         style="stop-color:#36a2f5;stop-opacity:1;"
         offset="0"
         id="stop845" />
      <stop
         style="stop-color:#36a2f5;stop-opacity:0;"
         offset="1"
         id="stop847" />
    </linearGradient>
    <linearGradient
       inkscape:collect="always"
       xlink:href="#linearGradient849"
       id="linearGradient851"
       x1="56.46431"
       y1="66.547218"
       x2="-34.786045"
       y2="-35.03812"
       gradientUnits="userSpaceOnUse" />
    <linearGradient
       inkscape:collect="always"
       xlink:href="#linearGradient857"
       id="linearGradient859"
       x1="41.592014"
       y1="61.253689"
       x2="17.645096"
       y2="30.248735"
       gradientUnits="userSpaceOnUse" />
  </defs>
  <metadata
     id="metadata12">
    <rdf:RDF>
      <cc:Work
         rdf:about="">
        <dc:format>image/svg+xml</dc:format>
        <dc:type
           rdf:resource="http://purl.org/dc/dcmitype/StillImage" />
      </cc:Work>
    </rdf:RDF>
  </metadata>
  <path
     d="M67.7 30H32.3c-5.9 0-10.8 4.8-10.8 10.8v43c0 .9.6 1.7 1.4 2l.7.1a2 2 0 001.6-.8L35 73.2h32.5c5.9 0 10.8-4.8 10.8-10.8V40.8c.2-5.9-4.7-10.8-10.6-10.8zm6.5 32.6c0 3.6-2.9 6.5-6.5 6.5H34.1a2 2 0 00-1.6.8L25.8 78V40.8c0-3.6 2.9-6.5 6.5-6.5h35.4c3.6 0 6.5 2.9 6.5 6.5z"
     id="path14"
     style="fill:url(#linearGradient851);fill-opacity:1" />
  <path
     d="M66.5 44.4H33.2c-1.2 0-2.1 1-2.1 2.1s1 2.1 2.1 2.1h33.3c1.2 0 2.1-1 2.1-2.1s-.9-2.1-2.1-2.1zM59.5 55.6H33.2c-1.2 0-2.1 1-2.1 2.1 0 1.2 1 2.1 2.1 2.1h26.3c1.2 0 2.1-1 2.1-2.1.1-1.1-.9-2.1-2.1-2.1z"
     id="path16"
     style="fill:url(#linearGradient859);fill-opacity:1" />
</svg>
