<?xml version="1.0" encoding="UTF-8" standalone="no"?>
<svg
   xmlns:dc="http://purl.org/dc/elements/1.1/"
   xmlns:cc="http://creativecommons.org/ns#"
   xmlns:rdf="http://www.w3.org/1999/02/22-rdf-syntax-ns#"
   xmlns:svg="http://www.w3.org/2000/svg"
   xmlns="http://www.w3.org/2000/svg"
   xmlns:sodipodi="http://sodipodi.sourceforge.net/DTD/sodipodi-0.dtd"
   xmlns:inkscape="http://www.inkscape.org/namespaces/inkscape"
   width="210mm"
   height="297mm"
   viewBox="0 0 210 297"
   version="1.1"
   id="svg117"
   inkscape:version="1.0.2 (e86c8708, 2021-01-15)"
   sodipodi:docname="like1.svg">
  <defs
     id="defs111" />
  <sodipodi:namedview
     id="base"
     pagecolor="#ffffff"
     bordercolor="#666666"
     borderopacity="1.0"
     inkscape:pageopacity="0.0"
     inkscape:pageshadow="2"
     inkscape:zoom="0.35"
     inkscape:cx="400"
     inkscape:cy="560"
     inkscape:document-units="mm"
     inkscape:current-layer="layer1"
     inkscape:document-rotation="0"
     showgrid="false"
     inkscape:window-width="1434"
     inkscape:window-height="801"
     inkscape:window-x="0"
     inkscape:window-y="0"
     inkscape:window-maximized="0" />
  <metadata
     id="metadata114">
    <rdf:RDF>
      <cc:Work
         rdf:about="">
        <dc:format>image/svg+xml</dc:format>
        <dc:type
           rdf:resource="http://purl.org/dc/dcmitype/StillImage" />
        <dc:title></dc:title>
      </cc:Work>
    </rdf:RDF>
  </metadata>
  <g
     inkscape:label="Calque 1"
     inkscape:groupmode="layer"
     id="layer1">
    <path
       d="m 90.714286,152.77797 c -0.132292,0 -0.264584,-0.0529 -0.370417,-0.15875 -0.15875,-0.15875 -4.048125,-3.91583 -5.318125,-5.31812 -0.608541,-0.66146 -1.984375,-2.38125 -1.984375,-4.04813 0,-2.03729 1.243542,-4.23333 3.96875,-4.23333 1.481667,0 2.883958,0.82021 3.704167,1.74625 0.820208,-0.92604 2.2225,-1.74625 3.704166,-1.74625 2.725209,0 3.96875,2.19604 3.96875,4.23333 0,1.69334 -1.402291,3.41313 -1.984375,4.04813 -1.27,1.40229 -5.159375,5.15937 -5.318125,5.31812 -0.105833,0.10584 -0.238125,0.15875 -0.370416,0.15875 z m -3.704167,-12.7 c -2.010833,0 -2.910416,1.5875 -2.910416,3.175 0,1.34938 1.322916,2.91042 1.719791,3.36021 1.031875,1.13771 3.889375,3.91584 4.894792,4.92125 1.031875,-1.00541 3.862916,-3.78354 4.894791,-4.92125 0.396875,-0.44979 1.719792,-2.01083 1.719792,-3.36021 0,-1.5875 -0.899583,-3.175 -2.910417,-3.175 -1.375833,0 -2.725208,0.9525 -3.254375,1.85209 -0.105833,0.15875 -0.264583,0.26458 -0.449791,0.26458 -0.185209,0 -0.370417,-0.10583 -0.449792,-0.26458 -0.529167,-0.89959 -1.878541,-1.85209 -3.254375,-1.85209 z"
       id="path60"
       style="stroke-width:0.264583" />
  </g>
</svg>
