<?xml version="1.0" encoding="UTF-8" standalone="no"?>
<svg
   xmlns:dc="http://purl.org/dc/elements/1.1/"
   xmlns:cc="http://creativecommons.org/ns#"
   xmlns:rdf="http://www.w3.org/1999/02/22-rdf-syntax-ns#"
   xmlns:svg="http://www.w3.org/2000/svg"
   xmlns="http://www.w3.org/2000/svg"
   xmlns:sodipodi="http://sodipodi.sourceforge.net/DTD/sodipodi-0.dtd"
   xmlns:inkscape="http://www.inkscape.org/namespaces/inkscape"
   version="1.1"
   x="0px"
   y="0px"
   viewBox="0 0 90 112.5"
   enable-background="new 0 0 90 90"
   xml:space="preserve"
   id="svg66"
   sodipodi:docname="like.svg"
   inkscape:version="1.0.2 (e86c8708, 2021-01-15)"><metadata
     id="metadata72"><rdf:RDF><cc:Work
         rdf:about=""><dc:format>image/svg+xml</dc:format><dc:type
           rdf:resource="http://purl.org/dc/dcmitype/StillImage" /></cc:Work></rdf:RDF></metadata><defs
     id="defs70" /><sodipodi:namedview
     pagecolor="#ffffff"
     bordercolor="#666666"
     borderopacity="1"
     objecttolerance="10"
     gridtolerance="10"
     guidetolerance="10"
     inkscape:pageopacity="0"
     inkscape:pageshadow="2"
     inkscape:window-width="745"
     inkscape:window-height="480"
     id="namedview68"
     showgrid="false"
     inkscape:zoom="1.7169754"
     inkscape:cx="2.9856039"
     inkscape:cy="69.091879"
     inkscape:window-x="0"
     inkscape:window-y="0"
     inkscape:window-maximized="0"
     inkscape:current-layer="svg66"
     inkscape:document-rotation="0" /><path
     d="m 45.428723,85.406793 c -0.5,0 -1,-0.2 -1.4,-0.6 -0.6,-0.600001 -15.3,-14.800001 -20.1,-20.100001 -2.3,-2.5 -7.5,-9 -7.5,-15.3 0,-7.7 4.7,-16 15,-16 5.6,0 10.9,3.1 14,6.6 3.1,-3.5 8.4,-6.6 14,-6.6 10.3,0 15,8.3 15,16 0,6.4 -5.3,12.9 -7.5,15.3 -4.8,5.3 -19.5,19.5 -20.1,20.100001 -0.4,0.4 -0.9,0.6 -1.4,0.6 z m -14,-48.000001 c -7.6,0 -11,6 -11,12 0,5.1 5,11 6.5,12.7 3.9,4.3 14.7,14.8 18.5,18.6 3.9,-3.8 14.6,-14.3 18.5,-18.6 1.5,-1.7 6.5,-7.6 6.5,-12.7 0,-6 -3.4,-12 -11,-12 -5.2,0 -10.3,3.6 -12.3,7 -0.4,0.6 -1,1 -1.7,1 -0.7,0 -1.4,-0.4 -1.7,-1 -2,-3.4 -7.1,-7 -12.3,-7 z"
     id="path60" /></svg>
