<?xml version="1.0" encoding="UTF-8" standalone="no"?>
<svg
   xmlns:dc="http://purl.org/dc/elements/1.1/"
   xmlns:cc="http://creativecommons.org/ns#"
   xmlns:rdf="http://www.w3.org/1999/02/22-rdf-syntax-ns#"
   xmlns:svg="http://www.w3.org/2000/svg"
   xmlns="http://www.w3.org/2000/svg"
   version="1.1"
   id="svg833"
   width="1000"
   height="582"
   viewBox="0 0 1000 582">
  <metadata
     id="metadata839">
    <rdf:RDF>
      <cc:Work
         rdf:about="">
        <dc:format>image/svg+xml</dc:format>
        <dc:type
           rdf:resource="http://purl.org/dc/dcmitype/StillImage" />
        <dc:title></dc:title>
      </cc:Work>
    </rdf:RDF>
  </metadata>
  <defs
     id="defs837" />
  <g
     id="g841">
    <g
       id="g882">
      <path
         style="fill:#EDEBE8;fill-opacity:1;stroke:none;stroke-width:8.43645;stroke-linejoin:round"
         d="M 220.90158,577.5946 C 174.9465,566.47975 131.70642,516.85917 114.79446,455.83029 103.12734,413.7281 113.3743,342.54647 135.86738,309.44493 c 5.72837,-8.43007 7.46653,-19.30125 3.47994,-21.76511 -4.50347,-2.7833 -17.77345,-29.70656 -23.12038,-46.90859 -6.77345,-21.79139 -7.85199,-29.05865 -10.42949,-70.27448 C 103.42883,132.62109 99.173623,115.8075 84.363375,85.804404 70.097234,56.903576 45.971629,32.329944 19.391317,19.625778 -9.3885463,5.8703277 -3.9250094,-0.94156605 34.121033,1.2608855 48.744848,2.1074451 54.473868,3.7400603 71.353082,11.871013 c 16.337317,7.86991 23.233096,12.924831 38.090268,27.921893 15.12177,15.264159 20.04965,22.182739 29.60535,41.564942 13.9336,28.262082 18.61763,46.180482 24.71416,94.542192 5.29491,42.00274 9.60849,55.7842 23.25633,74.30148 14.10573,19.13854 30.79741,30.64098 48.96518,33.74245 12.99625,2.21862 13.83069,8.17168 1.42352,10.15567 -26.31477,4.2079 -52.43005,28.9715 -64.75219,61.40076 -18.28722,48.12804 -1.77874,126.74989 35.81992,170.59288 15.5264,18.105 27.1441,27.29516 47.34426,37.45161 9.57091,4.81216 17.40165,9.69542 17.40165,10.85169 0,3.16723 -15.29857,6.77395 -27.90178,6.57802 -6.1384,-0.0955 -17.12657,-1.61643 -24.41817,-3.38 z"
         id="path845" />
      <path
         style="fill:#EDEBE8;fill-opacity:0.98387098;stroke:none;stroke-width:8.43645;stroke-linejoin:round"
         d="m 305.2021,342.28249 c -24.38897,-4.94691 -39.58945,-25.8398 -39.65515,-54.50557 -0.0433,-18.88783 3.51618,-30.14754 12.91405,-40.85112 17.92752,-20.41832 53.88496,-22.00312 73.64799,-3.24599 19.79682,18.7892 22.6374,57.38412 5.9218,80.45934 -10.52563,14.53021 -32.84719,22.19627 -52.82869,18.14334 z m 30.09118,-17.86037 c 10.25453,-6.25202 15.94325,-19.79433 16.00423,-38.09892 0.0931,-27.94301 -13.89255,-43.36098 -37.70714,-41.56892 -10.44833,0.78624 -13.07735,1.99071 -19.39691,8.88655 -8.91431,9.72719 -12.92776,23.47379 -11.35005,38.87542 1.55893,15.21835 7.38232,27.04028 15.86911,32.21552 9.3797,5.71972 26.93516,5.57112 36.58076,-0.30965 z"
         id="path847" />
      <path
         style="fill:#EDEBE8;fill-opacity:1;stroke:none;stroke-width:2.98273;stroke-linejoin:round"
         d="m 429.01476,342.94902 c -16.49824,-2.40886 -24.40273,-8.9571 -29.87714,-24.7508 -1.03571,-2.98803 -1.27468,-9.82589 -1.50663,-43.11011 l -0.27568,-39.55879 1.9521,-2.26784 c 1.73016,-2.01 2.45594,-2.26304 6.38382,-2.22563 3.73842,0.0356 4.76742,0.37777 6.57769,2.18719 l 2.14598,2.14499 0.39459,38.45566 0.39459,38.45567 2.04444,4.3405 c 2.17985,4.62797 7.68661,10.25936 10.03231,10.25936 0.78004,0 1.86217,0.44391 2.40473,0.98647 1.28824,1.28824 19.11606,1.37676 20.71311,0.10285 0.60927,-0.48599 2.41847,-1.30564 4.02043,-1.82142 3.69452,-1.18954 11.51303,-8.87057 13.86244,-13.6187 3.2923,-6.65369 3.60229,-10.04235 4.07616,-44.55883 0.50917,-37.08733 0.23251,-35.40003 6.09956,-37.20067 2.47488,-0.75957 3.37456,-0.64084 6.47982,0.85512 2.81365,1.35548 3.74696,2.30069 4.24788,4.3021 0.35308,1.41072 0.54302,25.08735 0.42209,52.61474 l -0.21989,50.04979 -1.91322,2.03609 c -1.59599,1.69848 -2.61609,2.03609 -6.15204,2.03609 -3.44822,0 -4.60009,-0.36129 -6.17588,-1.93708 -1.78608,-1.78608 -1.93709,-2.52432 -1.93709,-9.47018 0,-8.40365 -0.89679,-9.59763 -3.5326,-4.70324 -2.21753,4.11771 -9.42396,10.37216 -14.94979,12.97492 -6.85355,3.22813 -17.41316,4.63341 -25.71178,3.42175 z"
         id="path851" />
      <path
         style="fill:#EDEBE8;fill-opacity:1;stroke:none;stroke-width:2.98273;stroke-linejoin:round;stroke-opacity:1"
         d="m 528.76705,341.57895 c -1.3457,-0.60947 -2.67744,-1.70936 -2.95943,-2.44421 -0.28198,-0.73484 -0.5127,-24.40673 -0.5127,-52.60421 V 235.2624 l 1.93709,-1.93708 c 3.42712,-3.42713 11.89331,-2.35751 13.75952,1.73839 0.61295,1.34527 0.87621,17.07383 0.87621,52.34955 v 50.42648 l -1.8017,2.0946 c -2.19542,2.55233 -7.56807,3.33433 -11.29899,1.64461 z"
         id="path853" />
      <path
         style="fill:#EDEBE8;fill-opacity:1;stroke:none;stroke-width:2.98273;stroke-linejoin:round"
         d="m 527.90596,203.73197 c -3.8685,-1.19107 -5.76776,-4.4752 -5.76776,-9.97339 0,-5.39665 1.32274,-7.78687 5.20747,-9.41002 3.11434,-1.30125 8.63155,-1.43094 11.83946,-0.27829 3.79716,1.36436 5.44474,4.39459 5.44474,10.01395 0,4.44675 -0.23411,5.15132 -2.44686,7.36407 -2.07036,2.07037 -3.16323,2.49397 -7.10263,2.753 -2.56068,0.16838 -5.78917,-0.0428 -7.17442,-0.46932 z"
         id="path855" />
      <path
         style="fill:#EDEBE8;fill-opacity:1;stroke:none;stroke-width:2.98273;stroke-linejoin:round"
         d="m 665.37467,471.5621 c -21.04975,-2.57881 -33.43162,-8.6617 -48.57664,-23.8644 -15.26498,-15.32311 -25.38435,-33.33718 -32.8472,-58.47313 -2.15963,-7.27395 -2.22598,-8.03778 -2.22767,-25.6484 -0.002,-17.14667 0.12137,-18.67528 2.22299,-27.62136 3.6869,-15.69427 8.25342,-28.26206 13.3189,-36.65581 5.21933,-8.64867 5.78647,-11.88171 2.73076,-15.56693 -5.55865,-6.7038 -10.98107,-18.20294 -15.56532,-33.00888 -2.59308,-8.37498 -3.86358,-19.00136 -5.42541,-45.37795 -1.12141,-18.93857 -5.15973,-34.03157 -13.40838,-50.11304 -10.74074,-20.94004 -22.89639,-33.10943 -42.80829,-42.85672 -5.93611,-2.90585 -10.99547,-5.753 -11.24301,-6.32701 -1.67061,-3.87377 6.92728,-6.167519 20.45158,-5.45608 8.42343,0.44311 16.40116,2.72143 26.15146,7.46847 24.94559,12.14503 45.15125,39.51798 52.69804,71.39089 2.00264,8.45793 4.4695,24.76291 6.00704,39.70417 2.9557,28.72256 14.02046,47.69968 34.22329,58.69621 4.28827,2.33414 6.99428,3.13793 14.88975,4.42282 2.6238,0.427 2.95943,0.73955 2.95943,2.75604 0,2.22595 -0.13036,2.29545 -6.11616,3.26077 -15.99595,2.57965 -32.01041,16.88905 -39.65862,35.43617 -4.72379,11.4553 -5.84891,17.96271 -5.86631,33.92937 -0.0155,14.20346 0.25655,16.67326 3.21625,29.19972 3.51455,14.87484 11.89531,33.8324 19.27857,43.6088 5.74509,7.60726 15.05546,17.30362 20.72763,21.58698 4.56882,3.45015 19.43627,11.33273 23.2616,12.33308 1.21097,0.31667 1.72985,1.05721 1.72985,2.46879 0,1.70964 -0.51027,2.14879 -3.35402,2.88653 -1.84471,0.47857 -4.59698,1.20054 -6.11616,1.60438 -2.71708,0.72229 -5.98375,0.78867 -10.65395,0.21652 z"
         id="path857" />
      <path
         style="fill:#EDEBE8;fill-opacity:1;stroke:none;stroke-width:4.21822;stroke-linejoin:round"
         d="m 734.2385,343.04774 c -10.21069,-1.44586 -23.86905,-8.25953 -30.2664,-15.09881 -10.87599,-11.62731 -14.37645,-21.65724 -14.37645,-41.19303 0,-14.84769 2.23617,-23.43344 8.71342,-33.455 10.96114,-16.95901 25.4845,-23.74633 48.02386,-22.44336 8.31126,0.48047 11.69674,1.22689 16.72682,3.68788 8.08693,3.95656 16.32441,12.21365 19.83536,19.88256 5.07881,11.09358 7.80411,30.78324 4.69161,33.89574 -0.99199,0.99199 -11.74222,1.33929 -41.45603,1.33929 h -40.11675 l 0.67564,7.2353 c 0.86687,9.28313 5.32786,18.46665 11.69125,24.06792 12.01565,10.57661 34.93625,11.5247 52.96131,2.1907 4.7541,-2.46184 9.32191,-4.47607 10.15069,-4.47607 2.36107,0 5.20103,3.79371 5.20103,6.94771 0,6.3328 -16.24264,14.90723 -33.13789,17.49336 -8.93959,1.36838 -9.13542,1.36762 -19.31747,-0.0742 z m 39.35875,-69.20084 c -0.33907,-6.75248 -3.86221,-16.07389 -7.94703,-21.02599 -1.77749,-2.15489 -5.67999,-5.16829 -8.67221,-6.69643 -4.61166,-2.3552 -6.9705,-2.77687 -15.48504,-2.76816 -8.72034,0.009 -10.79362,0.40412 -15.72547,2.99752 -9.81229,5.15976 -17.42093,16.38749 -19.02223,28.07029 l -0.7165,5.22742 33.91513,-0.29561 33.91514,-0.29561 z"
         id="path863" />
      <path
         style="fill:#EDEBE8;fill-opacity:1;stroke:none;stroke-width:4.21822;stroke-linejoin:round;stroke-opacity:1"
         d="m 946.29208,341.00229 c -2.16788,-2.16787 -2.23215,-3.72024 -2.23215,-53.91615 0,-39.65776 0.32547,-52.12912 1.39875,-53.59691 0.76932,-1.0521 3.24358,-2.21228 5.49837,-2.57818 3.42036,-0.55505 4.57549,-0.1894 6.97178,2.20689 2.50506,2.50506 2.8801,3.84158 2.93418,10.45639 l 0.062,7.58421 2.44915,-3.34821 c 7.91691,-10.82312 16.56313,-15.95231 28.59033,-16.96063 l 7.899,-0.66222 v 7.3116 7.31161 l -5.85937,0.75191 c -16.1613,2.07391 -25.61496,8.15714 -29.99945,19.304 -2.35076,5.97644 -2.54968,8.56406 -3.13584,40.79255 -0.58896,32.38184 -0.75364,34.50463 -2.79231,35.99331 -3.1617,2.30874 -9.15628,1.97801 -11.78445,-0.65017 z"
         id="path869" />
      <path
         style="fill:#EDEBE8;fill-opacity:1;stroke:none;stroke-width:2.98273;stroke-linejoin:round"
         d="m 848.47012,342.94902 c -16.49824,-2.40886 -24.40273,-8.9571 -29.87714,-24.7508 -1.03571,-2.98803 -1.27468,-9.82589 -1.50663,-43.11011 l -0.27568,-39.55879 1.9521,-2.26784 c 1.73016,-2.01 2.45594,-2.26304 6.38382,-2.22563 3.73842,0.0356 4.76742,0.37777 6.57769,2.18719 l 2.14598,2.14499 0.39459,38.45566 0.39459,38.45567 2.04444,4.3405 c 2.17985,4.62797 7.68661,10.25936 10.03231,10.25936 0.78004,0 1.86217,0.44391 2.40473,0.98647 1.28824,1.28824 19.11606,1.37676 20.71311,0.10285 0.60927,-0.48599 2.41847,-1.30564 4.02043,-1.82142 3.69452,-1.18954 11.51303,-8.87057 13.86244,-13.6187 3.2923,-6.65369 3.60229,-10.04235 4.07616,-44.55883 0.50917,-37.08733 0.23251,-35.40003 6.09956,-37.20067 2.47488,-0.75957 3.37456,-0.64084 6.47982,0.85512 2.81365,1.35548 3.74696,2.30069 4.24788,4.3021 0.35308,1.41072 0.54302,25.08735 0.42209,52.61474 l -0.21989,50.04979 -1.91322,2.03609 c -1.59599,1.69848 -2.61609,2.03609 -6.15204,2.03609 -3.44822,0 -4.60009,-0.36129 -6.17588,-1.93708 -1.78608,-1.78608 -1.93709,-2.52432 -1.93709,-9.47018 0,-8.40365 -0.89679,-9.59763 -3.5326,-4.70324 -2.21753,4.11771 -9.42396,10.37216 -14.94979,12.97492 -6.85355,3.22813 -17.41316,4.63341 -25.71178,3.42175 z"
         id="path871" />
    </g>
  </g>
</svg>
