<svg xmlns="http://www.w3.org/2000/svg" viewBox="0 0 1000 582"><defs/><metadata/><g fill="#e2e6f0" stroke-linejoin="round"><path stroke-width="8.4" d="M220.9 577.6c-46-11.1-89.2-60.7-106.1-121.8-11.7-42-1.4-113.3 21-146.4 5.8-8.4 7.5-19.3 3.5-21.7-4.5-2.8-17.7-29.7-23-47-6.8-21.7-8-29-10.5-70.2-2.4-37.9-6.6-54.7-21.4-84.7a146 146 0 00-65-66.2C-9.4 6-4-.9 34 1.3c14.6.8 20.4 2.4 37.3 10.6 16.3 7.8 23.2 12.9 38 27.9C124.6 55 129.4 62 139 81.4c14 28.2 18.7 46.1 24.8 94.5 5.3 42 9.6 55.8 23.2 74.3 14.1 19.1 30.8 30.6 49 33.7 13 2.3 13.8 8.2 1.4 10.2-26.3 4.2-52.4 29-64.7 61.4-18.3 48.1-1.8 126.8 35.8 170.6a134.7 134.7 0 0047.3 37.4c9.6 4.9 17.4 9.7 17.4 10.9 0 3.2-15.3 6.8-27.9 6.6-6.1-.1-17.1-1.6-24.4-3.4zM305.2 342.3c-24.4-5-39.6-25.9-39.7-54.5 0-19 3.6-30.2 13-40.9 17.9-20.4 53.8-22 73.6-3.2 19.8 18.8 22.6 57.4 6 80.4-10.6 14.6-33 22.2-52.9 18.2zm30-17.9c10.3-6.2 16-19.8 16.1-38 0-28-13.9-43.4-37.7-41.6-10.5.7-13 2-19.4 8.8a49 49 0 00-11.4 39c1.6 15.1 7.4 27 16 32.1 9.3 5.8 26.8 5.6 36.5-.3z"/><path stroke-width="3" d="M429 343c-16.5-2.5-24.4-9-29.9-24.8-1-3-1.2-9.8-1.5-43.1l-.2-39.6 2-2.2c1.6-2 2.4-2.3 6.3-2.3 3.7 0 4.8.4 6.6 2.2l2.1 2.2.4 38.4.4 38.5 2 4.3c2.2 4.6 7.7 10.3 10 10.3a4 4 0 012.5 1 56.3 56.3 0 0020.7 0c.6-.4 2.4-1.2 4-1.8a36.7 36.7 0 0013.9-13.6c3.3-6.6 3.6-10 4-44.5.6-37.1.3-35.4 6.2-37.2 2.4-.8 3.3-.7 6.4.8 2.9 1.4 3.8 2.3 4.3 4.3.3 1.4.5 25.1.4 52.6l-.2 50-2 2.1c-1.5 1.7-2.5 2-6 2s-4.7-.3-6.3-1.9c-1.7-1.8-1.9-2.5-1.9-9.4 0-8.4-.9-9.6-3.5-4.7a40 40 0 01-15 13 49.7 49.7 0 01-25.7 3.3zM528.8 341.6c-1.4-.6-2.7-1.7-3-2.5-.3-.7-.5-24.4-.5-52.6v-51.2l2-2c3.4-3.4 11.8-2.3 13.7 1.8.6 1.3.9 17 .9 52.3v50.4L540 340c-2.2 2.6-7.6 3.4-11.3 1.7zM528 203.7c-4-1.2-5.9-4.4-5.9-10 0-5.3 1.4-7.7 5.2-9.4 3.2-1.3 8.7-1.4 11.9-.2 3.8 1.3 5.4 4.4 5.4 10 0 4.4-.2 5.1-2.4 7.3-2 2.1-3.2 2.5-7.1 2.8-2.6.2-5.8 0-7.2-.5z"/><path stroke-width="3" d="M665.4 471.6a72.7 72.7 0 01-48.6-23.9 131 131 0 01-32.8-58.5c-2.2-7.2-2.3-8-2.3-25.6 0-17.2.1-18.7 2.2-27.6 3.7-15.7 8.3-28.3 13.4-36.7 5.2-8.6 5.8-11.9 2.7-15.6-5.6-6.7-11-18.2-15.6-33-2.6-8.4-3.8-19-5.4-45.4a119 119 0 00-13.4-50 87.6 87.6 0 00-42.8-43c-6-2.8-11-5.7-11.3-6.3-1.6-3.8 7-6.1 20.5-5.4 8.4.4 16.4 2.7 26.1 7.5 25 12.1 45.2 39.5 52.7 71.4a371 371 0 016 39.7c3 28.7 14 47.7 34.3 58.7a39 39 0 0014.9 4.4c2.6.4 3 .7 3 2.7 0 2.3-.2 2.3-6.2 3.3-16 2.6-32 16.9-39.6 35.4a73.7 73.7 0 00-6 34 92 92 0 003.3 29.2 136 136 0 0019.3 43.6c5.7 7.6 15 17.3 20.7 21.6 4.6 3.4 19.4 11.3 23.3 12.3 1.2.3 1.7 1 1.7 2.5 0 1.7-.5 2.1-3.4 2.8l-6 1.6c-2.8.8-6 .8-10.7.3z"/><path stroke-width="4.2" d="M734.2 343a59.6 59.6 0 01-30.2-15c-10.9-11.7-14.4-21.7-14.4-41.2 0-14.9 2.2-23.5 8.7-33.5 11-17 25.5-23.7 48-22.4a37 37 0 0116.8 3.6 46 46 0 0119.8 20c5 11 7.8 30.7 4.7 33.8-1 1-11.8 1.4-41.5 1.4h-40l.6 7.2c.9 9.3 5.3 18.5 11.7 24 12 10.6 35 11.6 53 2.3 4.7-2.5 9.3-4.5 10-4.5 2.5 0 5.3 3.8 5.3 7 0 6.3-16.2 14.8-33.1 17.4-9 1.4-9.2 1.4-19.4 0zm39.4-69.2c-.3-6.7-3.9-16-8-21a32.5 32.5 0 00-8.6-6.7c-4.6-2.3-7-2.8-15.5-2.7-8.7 0-10.8.4-15.7 3a38.6 38.6 0 00-19 28l-.8 5.3 34-.3 33.9-.3zM946.3 341c-2.2-2.2-2.2-3.7-2.2-54 0-39.6.3-52 1.4-53.5.7-1 3.2-2.2 5.5-2.6 3.4-.5 4.5-.2 7 2.2 2.4 2.5 2.8 3.9 2.9 10.5v7.6l2.5-3.4c7.9-10.8 16.5-16 28.6-17l7.9-.6v14.6l-5.9.8c-16.2 2-25.6 8.1-30 19.3-2.3 6-2.5 8.5-3.1 40.8-.6 32.3-.8 34.5-2.8 36-3.2 2.3-9.2 2-11.8-.7z"/><path stroke-width="3" d="M848.5 343c-16.5-2.5-24.4-9-30-24.8-1-3-1.2-9.8-1.4-43.1l-.3-39.6 2-2.2c1.7-2 2.4-2.3 6.3-2.3 3.8 0 4.8.4 6.6 2.2l2.2 2.2.4 38.4.4 38.5 2 4.3c2.2 4.6 7.7 10.3 10 10.3a4 4 0 012.4 1 56.3 56.3 0 0020.8 0c.6-.4 2.4-1.2 4-1.8a36.7 36.7 0 0013.8-13.6c3.3-6.6 3.6-10 4.1-44.5.5-37.1.2-35.4 6.1-37.2 2.5-.8 3.4-.7 6.5.8 2.8 1.4 3.7 2.3 4.2 4.3.4 1.4.6 25.1.5 52.6l-.3 50-1.9 2.1c-1.6 1.7-2.6 2-6.1 2-3.5 0-4.6-.3-6.2-1.9-1.8-1.8-2-2.5-2-9.4 0-8.4-.8-9.6-3.5-4.7a40 40 0 01-15 13 49.7 49.7 0 01-25.6 3.3z"/></g></svg>