<?xml version="1.0" encoding="UTF-8" standalone="no"?>
<svg
   xmlns:dc="http://purl.org/dc/elements/1.1/"
   xmlns:cc="http://creativecommons.org/ns#"
   xmlns:rdf="http://www.w3.org/1999/02/22-rdf-syntax-ns#"
   xmlns:svg="http://www.w3.org/2000/svg"
   xmlns="http://www.w3.org/2000/svg"
   version="1.1"
   id="svg1411"
   width="400"
   height="582"
   viewBox="0 0 400 582">
  <metadata
     id="metadata1417">
    <rdf:RDF>
      <cc:Work
         rdf:about="">
        <dc:format>image/svg+xml</dc:format>
        <dc:type
           rdf:resource="http://purl.org/dc/dcmitype/StillImage" />
        <dc:title></dc:title>
      </cc:Work>
    </rdf:RDF>
  </metadata>
  <defs
     id="defs1415" />
  <g
     id="g1419">
    <path
       style="fill:#000000;fill-opacity:1;stroke:none;stroke-width:4.23241;stroke-linejoin:round"
       d="m 369.53384,470.39561 c -9.66966,-2.09541 -23.63204,-8.98573 -31.88747,-15.73621 -17.81757,-14.56947 -32.89435,-39.46428 -39.90344,-65.88864 -3.04614,-11.48402 -2.96243,-40.04557 0.15591,-53.19175 3.76056,-15.85368 8.82595,-29.73525 13.47524,-36.92861 4.87533,-7.54307 5.48626,-11.59102 2.27461,-15.07114 -3.77846,-4.09429 -9.96346,-16.58328 -13.62292,-27.50791 -4.12789,-12.32302 -6.58734,-27.79412 -6.61835,-41.6325 -0.079,-35.28487 -15.27282,-71.37908 -37.90522,-90.04733 -4.00292,-3.30179 -12.48632,-8.63721 -18.85199,-11.85648 -6.36568,-3.21927 -11.57396,-6.44556 -11.57396,-7.16952 0,-3.44543 3.71164,-4.39011 17.24863,-4.39011 11.19767,0 14.82808,0.44301 20.93711,2.5549 16.18697,5.59583 34.91664,20.546 45.20012,36.07911 13.12607,19.8268 18.81462,37.87581 22.41158,71.10896 0.99993,9.23857 2.56744,20.05897 3.48334,24.04533 5.24021,22.80729 23.74811,43.14691 42.30343,46.49021 5.6226,1.01309 6.93313,1.66271 7.21197,3.57495 0.29868,2.04834 -0.50767,2.48634 -6.5303,3.5472 -14.64543,2.57973 -30.49625,16.30511 -37.93948,32.85213 -5.66388,12.59134 -7.28553,21.15804 -7.16814,37.86716 0.0922,13.11673 0.56686,16.86997 3.58659,28.35699 6.79535,25.84955 14.9075,40.44502 31.70874,57.05082 8.51314,8.41411 11.52879,10.57783 21.06995,15.11765 8.70877,4.14377 11.13858,5.79649 11.15209,7.58548 0.0354,4.68263 -15.67504,6.34076 -30.21804,3.18931 z"
       id="path1425" />
    <path
       style="fill:#000000;fill-opacity:1;stroke:none;stroke-width:4.23241;stroke-linejoin:round;stroke-opacity:1"
       d="m 239.18073,202.13556 c -2.56998,-2.2106 -3.11507,-3.60487 -3.18369,-8.14336 -0.11195,-7.40574 3.46319,-10.70956 11.58908,-10.70956 7.54145,0 11.08492,3.34479 11.08492,10.46339 0,7.24249 -2.5946,9.91284 -10.24832,10.54755 -5.27792,0.43768 -6.57695,0.13436 -9.24199,-2.15802 z"
       id="path1427" />
    <path
       style="fill:#000000;fill-opacity:1;stroke:none;stroke-width:6.51055;stroke-linejoin:round"
       d="m 216.65113,582.85488 c -14.50213,-3.30605 -35.44231,-14.17729 -47.82343,-24.8279 -26.722,-22.98707 -49.33347,-62.265 -59.84542,-103.95618 -4.56845,-18.11897 -4.44292,-63.18213 0.23383,-83.9236 5.63993,-25.01322 13.23677,-46.91496 20.20957,-58.26432 7.3118,-11.90113 8.22805,-18.28781 3.41136,-23.77859 -5.66677,-6.45978 -14.94277,-26.16436 -20.43105,-43.40075 -6.19083,-19.44272 -9.87941,-43.85234 -9.92591,-65.68594 C 102.36159,123.3467 79.574573,66.398844 45.631495,36.944908 39.628092,31.735486 26.905064,23.317499 17.358118,18.238277 7.8111504,13.159046 0,8.0687559 0,6.9265269 0,1.4904727 5.5665522,0 25.868734,0 42.662509,0 48.107238,0.6989559 57.269282,4.0310121 81.545795,12.859859 109.63572,36.447575 125.05843,60.955039 c 19.6859,31.281849 28.21733,59.758791 33.6119,112.192591 1.49965,14.57618 3.85053,31.64815 5.22417,37.93766 7.85902,35.98433 35.61635,68.07527 63.4448,73.35018 8.43255,1.59841 10.39801,2.62334 10.81619,5.64041 0.44796,3.23177 -0.76137,3.92282 -9.79384,5.59661 -21.96457,4.07019 -45.73693,25.72549 -56.89996,51.83263 -8.49445,19.86606 -10.92651,33.38223 -10.75046,59.74515 0.13827,20.695 0.85016,26.61667 5.37901,44.74039 10.19136,40.78428 22.35762,63.81236 47.55537,90.01227 12.76763,13.27541 17.29037,16.68923 31.59977,23.85197 13.06103,6.53786 16.70516,9.14545 16.72542,11.96802 0.0531,7.38805 -23.50873,10.00418 -45.31967,5.03196 z"
       id="path1425-3" />
  </g>
</svg>
