<svg xmlns="http://www.w3.org/2000/svg" viewBox="0 0 400 582"><defs/><metadata/><g fill="#111B2F" stroke-linejoin="round"><path stroke-width="4.2" d="M369.5 470.4c-9.6-2.1-23.6-9-31.9-15.7a131.2 131.2 0 01-39.9-66c-3-11.4-3-40 .2-53.1 3.8-15.9 8.8-29.8 13.5-37 4.8-7.5 5.5-11.5 2.2-15-3.7-4.1-10-16.6-13.6-27.5a139 139 0 01-6.6-41.7c0-35.2-15.3-71.3-37.9-90-4-3.3-12.5-8.6-18.8-11.9a43.6 43.6 0 01-11.6-7.1c0-3.5 3.7-4.4 17.2-4.4 11.2 0 14.9.4 21 2.5a99.5 99.5 0 0145.2 36.1c13 19.8 18.8 37.9 22.4 71.1 1 9.3 2.5 20 3.5 24 5.2 22.9 23.7 43.2 42.3 46.6 5.6 1 6.9 1.6 7.2 3.5.3 2-.5 2.5-6.6 3.6-14.6 2.6-30.5 16.3-37.9 32.8a77.8 77.8 0 00-7.2 37.9 88 88 0 003.6 28.4c6.8 25.8 15 40.4 31.7 57a60.4 60.4 0 0021.1 15.1c8.7 4.2 11.1 5.8 11.2 7.6 0 4.7-15.7 6.3-30.3 3.2z"/><path stroke-width="4.2" d="M239.2 202.1c-2.6-2.2-3.1-3.6-3.2-8.1-.1-7.4 3.5-10.7 11.6-10.7 7.5 0 11 3.3 11 10.4 0 7.3-2.5 10-10.2 10.6-5.3.4-6.6.1-9.2-2.2z"/><path stroke-width="6.5" d="M216.7 582.9a130.5 130.5 0 01-47.9-24.9c-26.7-23-49.3-62.2-59.8-104-4.6-18-4.5-63.1.2-83.9 5.7-25 13.3-46.9 20.2-58.2 7.3-12 8.3-18.3 3.4-23.8-5.6-6.5-15-26.2-20.4-43.4a229.8 229.8 0 01-10-65.7c0-55.7-22.8-112.6-56.8-142-6-5.3-18.7-13.7-28.2-18.8A65.1 65.1 0 010 7C0 1.5 5.6 0 25.9 0 42.7 0 48 .7 57.3 4 81.5 13 109.6 36.4 125 61c19.6 31.2 28.2 59.7 33.6 112.1 1.5 14.6 3.8 31.7 5.2 38 7.9 36 35.6 68 63.4 73.3 8.5 1.6 10.4 2.7 10.9 5.7.4 3.2-.8 3.9-9.8 5.6-22 4-45.8 25.7-57 51.8-8.4 19.9-10.9 33.4-10.7 59.8.1 20.6.9 26.6 5.4 44.7 10.2 40.8 22.3 63.8 47.5 90a90.9 90.9 0 0031.6 23.9c13.1 6.5 16.8 9.1 16.8 12 0 7.3-23.5 10-45.3 5z"/></g></svg>